<svg id="SvgjsSvg1000" xmlns="http://www.w3.org/2000/svg" version="1.1" xmlns:xlink="http://www.w3.org/1999/xlink" xmlns:svgjs="http://svgjs.com/svgjs" width="25" height="21" viewBox="0 0 25 21"><title>Forma 1</title><desc>Created with Avocode.</desc><defs id="SvgjsDefs1001"></defs><path id="SvgjsPath1007" d="M1534.83 4972.49L1524.51 4983.05C1523.86 4983.7300000000005 1523.86 4984.820000000001 1524.51 4985.49C1525.17 4986.16 1526.23 4986.16 1526.89 4985.49L1536.0200000000002 4976.139999999999L1545.1500000000003 4985.49C1545.8100000000004 4986.16 1546.8700000000003 4986.16 1547.5300000000004 4985.49C1548.1800000000005 4984.82 1548.1800000000005 4983.73 1547.5300000000004 4983.05L1537.2100000000005 4972.49C1536.8800000000006 4972.15 1536.4500000000005 4971.98 1536.0200000000004 4971.98C1535.5900000000004 4971.98 1535.1600000000005 4972.15 1534.8300000000004 4972.49Z " fill="#000000" fill-opacity="1" transform="matrix(1,0,0,1,-1524,-4971)"></path><path id="SvgjsPath1008" d="M1534.83 4972.49L1524.51 4983.05C1523.86 4983.7300000000005 1523.86 4984.820000000001 1524.51 4985.49C1525.17 4986.16 1526.23 4986.16 1526.89 4985.49L1536.0200000000002 4976.139999999999L1545.1500000000003 4985.49C1545.8100000000004 4986.16 1546.8700000000003 4986.16 1547.5300000000004 4985.49C1548.1800000000005 4984.82 1548.1800000000005 4983.73 1547.5300000000004 4983.05L1537.2100000000005 4972.49C1536.8800000000006 4972.15 1536.4500000000005 4971.98 1536.0200000000004 4971.98C1535.5900000000004 4971.98 1535.1600000000005 4972.15 1534.8300000000004 4972.49Z " fill="#ffffff" fill-opacity="1" transform="matrix(1,0,0,1,-1524,-4971)"></path><path id="SvgjsPath1009" d="M1535.2 4982.37L1528.32 4989.9C1527.8799999999999 4990.379999999999 1527.8799999999999 4991.16 1528.32 4991.639999999999C1528.76 4992.11 1529.47 4992.11 1529.9099999999999 4991.639999999999L1535.9899999999998 4984.969999999999L1542.0799999999997 4991.629999999999C1542.5199999999998 4992.109999999999 1543.2299999999998 4992.109999999999 1543.6599999999996 4991.629999999999C1544.0999999999997 4991.159999999999 1544.0999999999997 4990.379999999999 1543.6599999999996 4989.9L1536.7799999999995 4982.37C1536.5699999999995 4982.13 1536.2799999999995 4982.01 1535.9899999999996 4982.01C1535.7099999999996 4982.01 1535.4199999999996 4982.13 1535.1999999999996 4982.37Z " fill="#000000" fill-opacity="1" transform="matrix(1,0,0,1,-1524,-4971)"></path><path id="SvgjsPath1010" d="M1535.2 4982.37L1528.32 4989.9C1527.8799999999999 4990.379999999999 1527.8799999999999 4991.16 1528.32 4991.639999999999C1528.76 4992.11 1529.47 4992.11 1529.9099999999999 4991.639999999999L1535.9899999999998 4984.969999999999L1542.0799999999997 4991.629999999999C1542.5199999999998 4992.109999999999 1543.2299999999998 4992.109999999999 1543.6599999999996 4991.629999999999C1544.0999999999997 4991.159999999999 1544.0999999999997 4990.379999999999 1543.6599999999996 4989.9L1536.7799999999995 4982.37C1536.5699999999995 4982.13 1536.2799999999995 4982.01 1535.9899999999996 4982.01C1535.7099999999996 4982.01 1535.4199999999996 4982.13 1535.1999999999996 4982.37Z " fill="#ffffff" fill-opacity="1" transform="matrix(1,0,0,1,-1524,-4971)"></path></svg>