<?xml version="1.0" encoding="utf-8"?>
<!-- Generator: Adobe Illustrator 19.2.1, SVG Export Plug-In . SVG Version: 6.00 Build 0)  -->
<svg version="1.1" id="SvgjsSvg1029" xmlns:svgjs="http://svgjs.com/svgjs"
	 xmlns="http://www.w3.org/2000/svg" xmlns:xlink="http://www.w3.org/1999/xlink" x="0px" y="0px" viewBox="0 0 59 56"
	 style="enable-background:new 0 0 59 56;" xml:space="preserve">
<style type="text/css">
	.st0{fill:#17B2E6;}
</style>
<path id="SvgjsPath1031" d="M59,20.5c0-0.6-0.5-1-1-1H43c-3.9-3.6-9.8-4.5-14.7-1.7c-0.8,0.5-1.6,1.1-2.3,1.7H1c-0.6,0-1,0.5-1,1
	c0,0.6,0.5,1,1,1h23.2c-0.9,1.3-1.6,2.8-1.9,4.4H1c-0.6,0-1,0.5-1,1c0,0.6,0.5,1,1,1h21c-0.1,1.5,0.1,3,0.6,4.4H1c-0.6,0-1,0.5-1,1
	c0,0.6,0.5,1,1,1h22.5c0,0.1,0.1,0.2,0.2,0.3c1.7,2.9,4.3,5,7.6,5.9c1.1,0.3,2.2,0.4,3.3,0.4c1.1,0,2.3-0.2,3.4-0.5l7.9,13.8
	c0.6,1,1.6,1.5,2.6,1.5c0.5,0,1-0.1,1.5-0.4c1.4-0.8,2-2.7,1.1-4.1l-7.9-13.8c0.9-0.9,1.7-1.9,2.4-3.1H58c0.6,0,1-0.5,1-1
	c0-0.6-0.5-1-1-1H46.4c0.1-0.2,0.1-0.4,0.2-0.6c0.4-1.3,0.5-2.6,0.4-3.9H58c0.6,0,1-0.5,1-1c0-0.6-0.5-1-1-1H46.7
	c-0.3-1.2-0.7-2.4-1.4-3.6c-0.2-0.3-0.3-0.6-0.5-0.9H58C58.5,21.6,59,21.1,59,20.5z M44.6,31.4c-0.7,2.7-2.5,4.9-4.9,6.3
	c-2.4,1.4-5.2,1.7-7.9,1c-2.7-0.7-4.9-2.5-6.3-4.9c-2.8-5-1.1-11.4,3.9-14.2c1.6-0.9,3.4-1.4,5.2-1.4c0.9,0,1.8,0.1,2.8,0.4
	c2.7,0.7,4.9,2.5,6.3,4.9C44.9,25.9,45.3,28.7,44.6,31.4z M49.3,52.5c0.1,0.2,0.2,0.5,0.1,0.7c-0.1,0.2-0.2,0.4-0.4,0.6
	c-0.5,0.3-1,0.1-1.3-0.4l-7.7-13.5c0.3-0.1,0.6-0.3,0.8-0.4c0.3-0.2,0.5-0.3,0.8-0.5L49.3,52.5z M58,13H1c-0.6,0-1,0.5-1,1
	c0,0.6,0.5,1,1,1H58c0.6,0,1-0.5,1-1C59,13.5,58.5,13,58,13z M1,2.1H58c0.6,0,1-0.5,1-1c0-0.6-0.5-1-1-1H1C0.5,0,0,0.5,0,1
	C0,1.6,0.5,2.1,1,2.1z M58,6.5H1c-0.6,0-1,0.5-1,1c0,0.6,0.5,1,1,1H58c0.6,0,1-0.5,1-1C59,7,58.5,6.5,58,6.5z M37,19.7
	c-2.4-0.7-4.9-0.3-7.1,0.9c-2.2,1.2-3.7,3.2-4.4,5.6c-0.7,2.4-0.3,4.9,0.9,7.1c1.7,3,4.9,4.7,8.1,4.7c1.6,0,3.1-0.4,4.6-1.2
	c4.4-2.5,6-8.2,3.4-12.7C41.4,21.9,39.4,20.3,37,19.7z M30.9,22.4c1.1-0.6,2.3-1,3.6-1c0.6,0,1.3,0.1,1.9,0.3
	c1.9,0.5,3.4,1.7,4.4,3.4c0.6,1,0.9,2.1,0.9,3.2H27.3c0-0.5,0.1-1,0.3-1.6C28.1,24.9,29.3,23.3,30.9,22.4z M38.1,34.9
	c-1.7,1-3.6,1.2-5.5,0.7c-1.9-0.5-3.4-1.7-4.4-3.4c-0.3-0.6-0.6-1.2-0.7-1.8h14C41.1,32.2,39.9,33.9,38.1,34.9z"/>
<path id="SvgjsPath1032" class="st0" d="M59,20.5c0-0.6-0.5-1-1-1H43c-3.9-3.6-9.8-4.5-14.7-1.7c-0.8,0.5-1.6,1.1-2.3,1.7H1
	c-0.6,0-1,0.5-1,1c0,0.6,0.5,1,1,1h23.2c-0.9,1.3-1.6,2.8-1.9,4.4H1c-0.6,0-1,0.5-1,1c0,0.6,0.5,1,1,1h21c-0.1,1.5,0.1,3,0.6,4.4H1
	c-0.6,0-1,0.5-1,1c0,0.6,0.5,1,1,1h22.5c0,0.1,0.1,0.2,0.2,0.3c1.7,2.9,4.3,5,7.6,5.9c1.1,0.3,2.2,0.4,3.3,0.4
	c1.1,0,2.3-0.2,3.4-0.5l7.9,13.8c0.6,1,1.6,1.5,2.6,1.5c0.5,0,1-0.1,1.5-0.4c1.4-0.8,2-2.7,1.1-4.1l-7.9-13.8
	c0.9-0.9,1.7-1.9,2.4-3.1H58c0.6,0,1-0.5,1-1c0-0.6-0.5-1-1-1H46.4c0.1-0.2,0.1-0.4,0.2-0.6c0.4-1.3,0.5-2.6,0.4-3.9H58
	c0.6,0,1-0.5,1-1c0-0.6-0.5-1-1-1H46.7c-0.3-1.2-0.7-2.4-1.4-3.6c-0.2-0.3-0.3-0.6-0.5-0.9H58C58.5,21.6,59,21.1,59,20.5z
	 M44.6,31.4c-0.7,2.7-2.5,4.9-4.9,6.3c-2.4,1.4-5.2,1.7-7.9,1c-2.7-0.7-4.9-2.5-6.3-4.9c-2.8-5-1.1-11.4,3.9-14.2
	c1.6-0.9,3.4-1.4,5.2-1.4c0.9,0,1.8,0.1,2.8,0.4c2.7,0.7,4.9,2.5,6.3,4.9C44.9,25.9,45.3,28.7,44.6,31.4z M49.3,52.5
	c0.1,0.2,0.2,0.5,0.1,0.7c-0.1,0.2-0.2,0.4-0.4,0.6c-0.5,0.3-1,0.1-1.3-0.4l-7.7-13.5c0.3-0.1,0.6-0.3,0.8-0.4
	c0.3-0.2,0.5-0.3,0.8-0.5L49.3,52.5z M58,13H1c-0.6,0-1,0.5-1,1c0,0.6,0.5,1,1,1H58c0.6,0,1-0.5,1-1C59,13.5,58.5,13,58,13z M1,2.1
	H58c0.6,0,1-0.5,1-1c0-0.6-0.5-1-1-1H1C0.5,0,0,0.5,0,1C0,1.6,0.5,2.1,1,2.1z M58,6.5H1c-0.6,0-1,0.5-1,1c0,0.6,0.5,1,1,1H58
	c0.6,0,1-0.5,1-1C59,7,58.5,6.5,58,6.5z M37,19.7c-2.4-0.7-4.9-0.3-7.1,0.9c-2.2,1.2-3.7,3.2-4.4,5.6c-0.7,2.4-0.3,4.9,0.9,7.1
	c1.7,3,4.9,4.7,8.1,4.7c1.6,0,3.1-0.4,4.6-1.2c4.4-2.5,6-8.2,3.4-12.7C41.4,21.9,39.4,20.3,37,19.7z M30.9,22.4c1.1-0.6,2.3-1,3.6-1
	c0.6,0,1.3,0.1,1.9,0.3c1.9,0.5,3.4,1.7,4.4,3.4c0.6,1,0.9,2.1,0.9,3.2H27.3c0-0.5,0.1-1,0.3-1.6C28.1,24.9,29.3,23.3,30.9,22.4z
	 M38.1,34.9c-1.7,1-3.6,1.2-5.5,0.7c-1.9-0.5-3.4-1.7-4.4-3.4c-0.3-0.6-0.6-1.2-0.7-1.8h14C41.1,32.2,39.9,33.9,38.1,34.9z"/>
</svg>
