<?xml version="1.0" encoding="utf-8"?>
<!-- Generator: Adobe Illustrator 19.2.1, SVG Export Plug-In . SVG Version: 6.00 Build 0)  -->
<svg version="1.1" id="SvgjsSvg1021" xmlns:svgjs="http://svgjs.com/svgjs"
	 xmlns="http://www.w3.org/2000/svg" xmlns:xlink="http://www.w3.org/1999/xlink" x="0px" y="0px" viewBox="0 0 58 58"
	 style="enable-background:new 0 0 58 58;" xml:space="preserve">
<style type="text/css">
	.st0{fill:#17B2E6;}
</style>
<path id="SvgjsPath1023" d="M57.1,17.4h-3.4v-5.5C53.7,5.3,48.4,0,41.9,0c-6.5,0-11.7,5.3-11.7,11.9V13H4.3c-2.4,0-4.3,2-4.3,4.4
	v4.8c0,2.4,1.9,4.4,4.3,4.4h21.6v2.4H4.3c-2.4,0-4.3,2-4.3,4.4V38c0,2.4,1.9,4.4,4.3,4.4h43.5c2.4,0,4.3-2,4.3-4.4v-0.9h1.1
	c2.6,0,4.7-2.1,4.7-4.8v-14C58,17.8,57.6,17.4,57.1,17.4z M47.9,44.5H4.3c-2.4,0-4.3,2-4.3,4.4v4.8C0,56,1.9,58,4.3,58h43.5
	c2.4,0,4.3-2,4.3-4.4v-4.8C52.2,46.5,50.2,44.5,47.9,44.5z M47.9,56.1H4.3c-1.3,0-2.4-1.1-2.4-2.5v-4.8c0-1.4,1.1-2.5,2.4-2.5h43.5
	c1.3,0,2.4,1.1,2.4,2.5v4.8C50.3,55,49.2,56.1,47.9,56.1z M50.3,38c0,1.4-1.1,2.5-2.4,2.5H4.3c-1.3,0-2.4-1.1-2.4-2.5v-4.8
	c0-1.4,1.1-2.5,2.4-2.5h21.6v1.6c0,2.6,2.1,4.8,4.7,4.8h19.7V38z M53.3,35.2H30.6c-1.6,0-2.8-1.3-2.8-2.9v-13h28.4v13
	C56.1,33.9,54.8,35.2,53.3,35.2z M41.9,1.9c5.4,0,9.9,4.5,9.9,10v5.5h-2.9v-5.1c0-3.9-3.1-7.1-7-7.1c-3.9,0-7,3.2-7,7.1v5.1h-2.9
	v-5.5C32.1,6.4,36.5,1.9,41.9,1.9z M1.9,22.1v-4.8c0-1.4,1.1-2.5,2.4-2.5h25.9v2.5h-3.4c-0.5,0-0.9,0.4-0.9,1v6.2H4.3
	C3,24.6,1.9,23.5,1.9,22.1z M47,17.4H36.8v-5.1c0-2.8,2.3-5.2,5.1-5.2c2.8,0,5.1,2.3,5.1,5.2V17.4z M10.3,34.6H7.4
	c-0.5,0-0.9,0.4-0.9,1s0.4,1,0.9,1h2.9c0.5,0,0.9-0.4,0.9-1S10.8,34.6,10.3,34.6z M10.3,18.8H7.4c-0.5,0-0.9,0.4-0.9,1
	c0,0.5,0.4,1,0.9,1h2.9c0.5,0,0.9-0.4,0.9-1C11.2,19.2,10.8,18.8,10.3,18.8z M10.3,50.3H7.4c-0.5,0-0.9,0.4-0.9,1c0,0.5,0.4,1,0.9,1
	h2.9c0.5,0,0.9-0.4,0.9-1C11.2,50.7,10.8,50.3,10.3,50.3z M41.9,24.1c-0.5,0-0.9,0.4-0.9,1v4.4c0,0.5,0.4,1,0.9,1s0.9-0.4,0.9-1
	v-4.4C42.9,24.5,42.5,24.1,41.9,24.1z"/>
<path id="SvgjsPath1024" class="st0" d="M57.1,17.4h-3.4v-5.5C53.7,5.3,48.4,0,41.9,0c-6.5,0-11.7,5.3-11.7,11.9V13H4.3
	c-2.4,0-4.3,2-4.3,4.4v4.8c0,2.4,1.9,4.4,4.3,4.4h21.6v2.4H4.3c-2.4,0-4.3,2-4.3,4.4V38c0,2.4,1.9,4.4,4.3,4.4h43.5
	c2.4,0,4.3-2,4.3-4.4v-0.9h1.1c2.6,0,4.7-2.1,4.7-4.8v-14C58,17.8,57.6,17.4,57.1,17.4z M47.9,44.5H4.3c-2.4,0-4.3,2-4.3,4.4v4.8
	C0,56,1.9,58,4.3,58h43.5c2.4,0,4.3-2,4.3-4.4v-4.8C52.2,46.5,50.2,44.5,47.9,44.5z M47.9,56.1H4.3c-1.3,0-2.4-1.1-2.4-2.5v-4.8
	c0-1.4,1.1-2.5,2.4-2.5h43.5c1.3,0,2.4,1.1,2.4,2.5v4.8C50.3,55,49.2,56.1,47.9,56.1z M50.3,38c0,1.4-1.1,2.5-2.4,2.5H4.3
	c-1.3,0-2.4-1.1-2.4-2.5v-4.8c0-1.4,1.1-2.5,2.4-2.5h21.6v1.6c0,2.6,2.1,4.8,4.7,4.8h19.7V38z M53.3,35.2H30.6
	c-1.6,0-2.8-1.3-2.8-2.9v-13h28.4v13C56.1,33.9,54.8,35.2,53.3,35.2z M41.9,1.9c5.4,0,9.9,4.5,9.9,10v5.5h-2.9v-5.1
	c0-3.9-3.1-7.1-7-7.1c-3.9,0-7,3.2-7,7.1v5.1h-2.9v-5.5C32.1,6.4,36.5,1.9,41.9,1.9z M1.9,22.1v-4.8c0-1.4,1.1-2.5,2.4-2.5h25.9v2.5
	h-3.4c-0.5,0-0.9,0.4-0.9,1v6.2H4.3C3,24.6,1.9,23.5,1.9,22.1z M47,17.4H36.8v-5.1c0-2.8,2.3-5.2,5.1-5.2c2.8,0,5.1,2.3,5.1,5.2
	V17.4z M10.3,34.6H7.4c-0.5,0-0.9,0.4-0.9,1s0.4,1,0.9,1h2.9c0.5,0,0.9-0.4,0.9-1S10.8,34.6,10.3,34.6z M10.3,18.8H7.4
	c-0.5,0-0.9,0.4-0.9,1c0,0.5,0.4,1,0.9,1h2.9c0.5,0,0.9-0.4,0.9-1C11.2,19.2,10.8,18.8,10.3,18.8z M10.3,50.3H7.4
	c-0.5,0-0.9,0.4-0.9,1c0,0.5,0.4,1,0.9,1h2.9c0.5,0,0.9-0.4,0.9-1C11.2,50.7,10.8,50.3,10.3,50.3z M41.9,24.1c-0.5,0-0.9,0.4-0.9,1
	v4.4c0,0.5,0.4,1,0.9,1s0.9-0.4,0.9-1v-4.4C42.9,24.5,42.5,24.1,41.9,24.1z"/>
</svg>
