<?xml version="1.0" encoding="utf-8"?>
<!-- Generator: Adobe Illustrator 19.2.1, SVG Export Plug-In . SVG Version: 6.00 Build 0)  -->
<svg version="1.1" id="SvgjsSvg1000" xmlns:svgjs="http://svgjs.com/svgjs"
	 xmlns="http://www.w3.org/2000/svg" xmlns:xlink="http://www.w3.org/1999/xlink" x="0px" y="0px" viewBox="0 0 14 12"
	 style="enable-background:new 0 0 14 12;" xml:space="preserve">
<style type="text/css">
	.st0{fill:#FFFFFF;}
</style>
<path id="SvgjsPath1007" d="M12.9,11H1.1C0.5,11,0,10.5,0,9.9V2.1C0,1.5,0.5,1,1.1,1h11.7C13.5,1,14,1.5,14,2.1v7.7
	C14,10.5,13.5,11,12.9,11z M1.1,1.5c-0.1,0-0.2,0-0.3,0.1l5.7,5c0.3,0.3,0.8,0.3,1.1,0l5.7-5c-0.1-0.1-0.2-0.1-0.3-0.1H1.1z
	 M0.5,1.9C0.5,2,0.5,2,0.5,2.1v7.7c0,0.4,0.3,0.7,0.7,0.7h11.7c0.4,0,0.7-0.3,0.7-0.7V2.1c0-0.1,0-0.2-0.1-0.3l-4.6,4l2.6,2.4
	c0.1,0.1,0.1,0.2,0,0.3c0,0-0.1,0.1-0.2,0.1c-0.1,0-0.1,0-0.2-0.1L8.6,6.2c0,0,0,0,0,0L7.8,6.8C7.6,7,7.3,7.1,7,7.1S6.4,7,6.2,6.8
	L5.4,6.2c0,0,0,0,0,0L2.8,8.7c0,0-0.1,0.1-0.2,0.1c-0.1,0-0.1,0-0.2-0.1c-0.1-0.1-0.1-0.2,0-0.3l2.6-2.4L0.5,1.9z"/>
<path id="SvgjsPath1008" class="st0" d="M12.9,11H1.1C0.5,11,0,10.5,0,9.9V2.1C0,1.5,0.5,1,1.1,1h11.7C13.5,1,14,1.5,14,2.1v7.7
	C14,10.5,13.5,11,12.9,11z M1.1,1.5c-0.1,0-0.2,0-0.3,0.1l5.7,5c0.3,0.3,0.8,0.3,1.1,0l5.7-5c-0.1-0.1-0.2-0.1-0.3-0.1H1.1z
	 M0.5,1.9C0.5,2,0.5,2,0.5,2.1v7.7c0,0.4,0.3,0.7,0.7,0.7h11.7c0.4,0,0.7-0.3,0.7-0.7V2.1c0-0.1,0-0.2-0.1-0.3l-4.6,4l2.6,2.4
	c0.1,0.1,0.1,0.2,0,0.3c0,0-0.1,0.1-0.2,0.1c-0.1,0-0.1,0-0.2-0.1L8.6,6.2c0,0,0,0,0,0L7.8,6.8C7.6,7,7.3,7.1,7,7.1S6.4,7,6.2,6.8
	L5.4,6.2c0,0,0,0,0,0L2.8,8.7c0,0-0.1,0.1-0.2,0.1c-0.1,0-0.1,0-0.2-0.1c-0.1-0.1-0.1-0.2,0-0.3l2.6-2.4L0.5,1.9z"/>
</svg>
