<?xml version="1.0" encoding="utf-8"?>
<!-- Generator: Adobe Illustrator 19.2.1, SVG Export Plug-In . SVG Version: 6.00 Build 0)  -->
<svg version="1.1" id="SvgjsSvg1025" xmlns:svgjs="http://svgjs.com/svgjs"
	 xmlns="http://www.w3.org/2000/svg" xmlns:xlink="http://www.w3.org/1999/xlink" x="0px" y="0px" viewBox="0 0 60 60"
	 style="enable-background:new 0 0 60 60;" xml:space="preserve">
<style type="text/css">
	.st0{fill:#17B2E6;}
</style>
<path id="SvgjsPath1027" d="M49.6,0H10.4L0,16.7V60h60V16.7L49.6,0z M2,58V18h56v40H2z M57.2,16H31V2h17.4L57.2,16z M11.6,2H29v14
	H2.8L11.6,2z M36,23H24c-1.7,0-3,1.3-3,3s1.3,3,3,3h12c1.7,0,3-1.3,3-3S37.7,23,36,23z M25,50c0.6,0,1-0.4,1-1v-6.6l1.3,1.3
	c0.2,0.2,0.5,0.3,0.7,0.3s0.5-0.1,0.7-0.3c0.4-0.4,0.4-1,0-1.4l-3-3c-0.1-0.1-0.2-0.2-0.3-0.2c-0.2-0.1-0.5-0.1-0.8,0
	c-0.1,0.1-0.2,0.1-0.3,0.2l-3,3c-0.4,0.4-0.4,1,0,1.4c0.2,0.2,0.5,0.3,0.7,0.3s0.5-0.1,0.7-0.3l1.3-1.3V49C24,49.6,24.4,50,25,50z
	 M38,52H22c-0.6,0-1,0.4-1,1s0.4,1,1,1h16c0.6,0,1-0.4,1-1S38.6,52,38,52z M36,27H24c-0.6,0-1-0.4-1-1s0.4-1,1-1h12c0.6,0,1,0.4,1,1
	S36.6,27,36,27z M35.7,39.3c-0.1-0.1-0.2-0.2-0.3-0.2c-0.2-0.1-0.5-0.1-0.8,0c-0.1,0.1-0.2,0.1-0.3,0.2l-3,3c-0.4,0.4-0.4,1,0,1.4
	c0.2,0.2,0.5,0.3,0.7,0.3s0.5-0.1,0.7-0.3l1.3-1.3V49c0,0.6,0.4,1,1,1s1-0.4,1-1v-6.6l1.3,1.3c0.2,0.2,0.5,0.3,0.7,0.3
	s0.5-0.1,0.7-0.3c0.4-0.4,0.4-1,0-1.4L35.7,39.3z"/>
<path id="SvgjsPath1028" class="st0" d="M49.6,0H10.4L0,16.7V60h60V16.7L49.6,0z M2,58V18h56v40H2z M57.2,16H31V2h17.4L57.2,16z
	 M11.6,2H29v14H2.8L11.6,2z M36,23H24c-1.7,0-3,1.3-3,3s1.3,3,3,3h12c1.7,0,3-1.3,3-3S37.7,23,36,23z M25,50c0.6,0,1-0.4,1-1v-6.6
	l1.3,1.3c0.2,0.2,0.5,0.3,0.7,0.3s0.5-0.1,0.7-0.3c0.4-0.4,0.4-1,0-1.4l-3-3c-0.1-0.1-0.2-0.2-0.3-0.2c-0.2-0.1-0.5-0.1-0.8,0
	c-0.1,0.1-0.2,0.1-0.3,0.2l-3,3c-0.4,0.4-0.4,1,0,1.4c0.2,0.2,0.5,0.3,0.7,0.3s0.5-0.1,0.7-0.3l1.3-1.3V49C24,49.6,24.4,50,25,50z
	 M38,52H22c-0.6,0-1,0.4-1,1s0.4,1,1,1h16c0.6,0,1-0.4,1-1S38.6,52,38,52z M36,27H24c-0.6,0-1-0.4-1-1s0.4-1,1-1h12c0.6,0,1,0.4,1,1
	S36.6,27,36,27z M35.7,39.3c-0.1-0.1-0.2-0.2-0.3-0.2c-0.2-0.1-0.5-0.1-0.8,0c-0.1,0.1-0.2,0.1-0.3,0.2l-3,3c-0.4,0.4-0.4,1,0,1.4
	c0.2,0.2,0.5,0.3,0.7,0.3s0.5-0.1,0.7-0.3l1.3-1.3V49c0,0.6,0.4,1,1,1s1-0.4,1-1v-6.6l1.3,1.3c0.2,0.2,0.5,0.3,0.7,0.3
	s0.5-0.1,0.7-0.3c0.4-0.4,0.4-1,0-1.4L35.7,39.3z"/>
</svg>
